<svg xmlns="http://www.w3.org/2000/svg" fill="none" viewBox="0 0 600 600"><g clip-path="url(#devicon-dotnet-1-a)"><path fill="#512BD4" d="M600 0H0v600h600z"/><path fill="#fff" d="M107 383.3q-6.5 0-10.9-4.2a14 14 0 0 1-4.4-10.3q0-6.2 4.4-10.5A15 15 0 0 1 107 354q6.5 0 11 4.3a14 14 0 0 1 4.5 10.5q0 6-4.5 10.3-4.5 4.2-11 4.2m169.5-2.4H249l-72.7-114.6q-2.8-4.3-4.6-9h-.6l.1.7.1.8.1 1 .1 1 .1 1.7.1 2 .1 2.1v2.4l.1 2.7v109.2h-24.3V225h29.3l70.3 111.9 1.7 2.7 1.1 1.8 1 1.6.8 1.4.4.8.4.7.3.6h.4v-.5l-.2-1-.2-1.2v-1.3l-.1-.7-.2-1.4V339l-.1-1.6-.1-2.6-.1-2.9V225h24.2zm118.8 0H310V225h82v22h-56.7v44h52.3v22h-52.3v46h60.1zm121.4-134H473v134h-25.3V247h-43.6v-22h112.6z"/></g><defs><clipPath id="devicon-dotnet-1-a"><path fill="#fff" d="M0 0h600v600H0z"/></clipPath></defs></svg>