<svg xmlns="http://www.w3.org/2000/svg" fill="none" viewBox="0 0 600 600"><g clip-path="url(#devicon-wordpress-icon-1-a)"><path fill="#464342" d="M42.6 300a257 257 0 0 0 145 231.6L65 195.3A256 256 0 0 0 42.6 300m431.1-13c0-31.8-11.4-53.8-21.2-71-13-21.2-25.3-39.1-25.3-60.3 0-23.7 18-45.7 43.2-45.7l3.4.2A257 257 0 0 0 85 158.6l16.5.4c27 0 68.6-3.3 68.6-3.3 13.9-.8 15.5 19.6 1.7 21.2 0 0-14 1.6-29.5 2.4L236 458.1l56.3-169-40-109.8c-14-.8-27-2.4-27-2.4-13.9-.8-12.3-22 1.6-21.2 0 0 42.5 3.3 67.8 3.3 26.9 0 68.6-3.3 68.6-3.3 13.8-.8 15.5 19.5 1.6 21.2 0 0-14 1.6-29.4 2.4l93 276.7 25.6-85.8c11.2-35.6 19.6-61.2 19.6-83.2m-169.2 35.5L227.3 547a257 257 0 0 0 158.2-4.1q-1.1-1.6-1.9-3.6zm221.3-146q1.7 12.3 1.7 26.5c0 26.1-4.8 55.5-19.5 92.2l-78.6 227.2a257 257 0 0 0 96.4-345.9M300 0A300.3 300.3 0 0 0 0 300c0 165.4 134.6 300 300 300s300-134.6 300-300S465.4 0 300 0m0 586.2A286.6 286.6 0 0 1 13.8 300 286.6 286.6 0 0 1 300 13.8 286.6 286.6 0 0 1 586.2 300 286.6 286.6 0 0 1 300 586.2"/></g><defs><clipPath id="devicon-wordpress-icon-1-a"><path fill="#fff" d="M0 0h600v600H0z"/></clipPath></defs></svg>